<svg width="274" height="233" viewBox="0 0 274 233" fill="none" xmlns="http://www.w3.org/2000/svg">
<path d="M0.601562 5.52836C0.601562 2.47513 3.07669 0 6.12992 0H268.073C271.126 0 273.602 2.47513 273.602 5.52836V39.5851C273.602 42.6383 271.126 45.1134 268.073 45.1134H6.12992C3.07669 45.1134 0.601562 42.6383 0.601562 39.5851V5.52836Z" fill="#F8C15B" fill-opacity="0.8"/>
<g clip-path="url(#clip0_2364_13250)">
<path fill-rule="evenodd" clip-rule="evenodd" d="M12.5154 13.8789C11.987 13.8789 11.5586 14.3073 11.5586 14.8357V18.3441C11.5586 20.48 13.1736 22.2387 15.2491 22.4656C15.9395 23.9022 17.2828 24.9656 18.8943 25.2713V28.5503H16.6617C16.1333 28.5503 15.7049 28.9787 15.7049 29.5071C15.7049 30.0356 16.1333 30.464 16.6617 30.464H23.0406C23.569 30.464 23.9974 30.0356 23.9974 29.5071C23.9974 28.9787 23.569 28.5503 23.0406 28.5503H20.808V25.2713C22.4195 24.9656 23.7628 23.9022 24.4532 22.4656C26.5287 22.2387 28.1437 20.48 28.1437 18.3441V14.8357C28.1437 14.3073 27.7153 13.8789 27.1868 13.8789H12.5154ZM14.748 15.7926H13.4723V18.3441C13.4723 19.2347 13.9937 20.0036 14.748 20.3619V15.7926ZM24.9542 15.7926V20.3619C25.7085 20.0036 26.23 19.2347 26.23 18.3441V15.7926H24.9542Z" fill="#292C32"/>
</g>
<path d="M38.8333 26.5566H34.2088V20.0746H35.4665V25.4731H38.8333V26.5566ZM39.406 24.138C39.406 22.6094 40.5282 21.5936 42.1826 21.5839C43.924 21.5839 45.0463 22.6868 44.9302 24.3895H40.5863C40.683 25.1925 41.2925 25.7149 42.1923 25.7149C42.9663 25.7246 43.4984 25.3667 43.7209 24.8055H44.9302C44.6496 25.9471 43.6048 26.7018 42.1923 26.6921C40.5379 26.6921 39.406 25.6569 39.406 24.138ZM40.625 23.5865H43.6918C43.5758 22.9383 43.0049 22.5513 42.1923 22.5513C41.3796 22.5513 40.7508 22.9383 40.625 23.5865ZM46.8824 23.5382H45.7408C45.8375 22.2998 46.7469 21.5742 48.3336 21.5742C49.9783 21.5742 50.8877 22.2805 50.8877 23.5865V26.5566H49.8235L49.7558 25.8601H49.6687C49.2623 26.3631 48.6238 26.6921 47.7725 26.6921C46.6308 26.6921 45.8569 26.1503 45.8569 25.2312C45.8569 24.2734 46.776 23.7026 48.2272 23.7026C48.7593 23.7026 49.2817 23.7607 49.7364 23.8477V23.5865C49.7364 22.8609 49.3301 22.5223 48.3336 22.5223C47.4048 22.5223 46.9501 22.8609 46.8824 23.5382ZM47.0275 25.1441C47.0275 25.5795 47.4435 25.744 48.0046 25.744C48.8754 25.744 49.6106 25.3183 49.7654 24.6411C49.3301 24.5637 48.8463 24.5056 48.2755 24.5056C47.5112 24.5056 47.0275 24.7088 47.0275 25.1441ZM51.8313 24.0219C51.8313 22.59 52.9245 21.5839 54.3564 21.5839C55.1787 21.5839 55.7979 21.9225 56.1655 22.4062H56.2526L56.33 21.7193H57.3942V26.1019C57.3942 27.5725 56.3493 28.4529 54.6563 28.4529C53.1954 28.4529 52.1409 27.7176 51.928 26.5857H53.089C53.2728 27.1661 53.8146 27.5048 54.6563 27.5048C55.7302 27.5048 56.2332 27.0597 56.2332 26.1213V25.6376H56.1462C55.7785 26.1213 55.1787 26.4502 54.3564 26.4502C52.9245 26.4502 51.8313 25.4537 51.8313 24.0219ZM53.0116 24.0219C53.0116 24.8926 53.6211 25.4828 54.6273 25.4828C55.6624 25.4828 56.2623 24.8152 56.2623 24.0219C56.2623 23.2286 55.6624 22.561 54.6273 22.561C53.6211 22.561 53.0116 23.1512 53.0116 24.0219ZM62.5345 21.7193H63.6858V26.5566H62.6216L62.5538 25.8601H62.4668C62.1088 26.3535 61.4896 26.6921 60.735 26.6921C59.3709 26.6921 58.5002 25.9084 58.5002 24.3799V21.7193H59.6611V24.2347C59.6611 25.2119 60.0384 25.6956 60.9962 25.6956C61.9056 25.6956 62.5345 25.1054 62.5345 24.138V21.7193ZM64.6723 24.138C64.6723 22.6094 65.7946 21.5936 67.4489 21.5839C69.1904 21.5839 70.3126 22.6868 70.1965 24.3895H65.8526C65.9494 25.1925 66.5589 25.7149 67.4586 25.7149C68.2326 25.7246 68.7647 25.3667 68.9872 24.8055H70.1965C69.9159 25.9471 68.8711 26.7018 67.4586 26.6921C65.8042 26.6921 64.6723 25.6569 64.6723 24.138ZM65.8913 23.5865H68.9582C68.8421 22.9383 68.2713 22.5513 67.4586 22.5513C66.6459 22.5513 66.0171 22.9383 65.8913 23.5865ZM75.1192 26.5566H73.8615V20.0746H75.1192V26.5566ZM77.4454 26.5566H76.2941V21.7193H77.3583L77.426 22.4159H77.5131C77.8711 21.9225 78.4903 21.5839 79.2932 21.5839C80.7057 21.5839 81.5668 22.3675 81.5668 23.8961V26.5566H80.4058V24.0412C80.4058 23.0641 80.0382 22.5804 79.032 22.5804C78.0742 22.5804 77.4454 23.1705 77.4454 24.138V26.5566ZM84.2138 26.5566L81.9499 21.7193H83.2367L84.891 25.5989H85.0071L86.6518 21.7193H87.9385L85.6747 26.5566H84.2138ZM88.3619 20.4326C88.3619 20.0359 88.7392 19.7264 89.281 19.7264C89.8325 19.7264 90.2098 20.0359 90.2098 20.4326C90.2098 20.8293 89.8325 21.1389 89.281 21.1389C88.7392 21.1389 88.3619 20.8293 88.3619 20.4326ZM89.8615 21.7193V26.5566H88.7102V21.7193H89.8615ZM91.5917 22.7642H90.6629V21.8161H91.5917V20.8099L92.743 20.5584V21.8161H94.0877V22.7642H92.743V25.1828C92.743 25.4634 92.8494 25.5698 93.1299 25.5698H94.1361V26.5566H92.9848C91.9883 26.5566 91.5917 26.2084 91.5917 25.2506V22.7642ZM95.9519 23.5382H94.8103C94.9071 22.2998 95.8165 21.5742 97.4031 21.5742C99.0478 21.5742 99.9572 22.2805 99.9572 23.5865V26.5566H98.893L98.8253 25.8601H98.7382C98.3319 26.3631 97.6934 26.6921 96.842 26.6921C95.7004 26.6921 94.9264 26.1503 94.9264 25.2312C94.9264 24.2734 95.8455 23.7026 97.2967 23.7026C97.8288 23.7026 98.3512 23.7607 98.806 23.8477V23.5865C98.806 22.8609 98.3996 22.5223 97.4031 22.5223C96.4744 22.5223 96.0197 22.8609 95.9519 23.5382ZM96.0971 25.1441C96.0971 25.5795 96.5131 25.744 97.0742 25.744C97.9449 25.744 98.6802 25.3183 98.835 24.6411C98.3996 24.5637 97.9159 24.5056 97.3451 24.5056C96.5808 24.5056 96.0971 24.7088 96.0971 25.1441ZM101.523 22.7642H100.594V21.8161H101.523V20.8099L102.674 20.5584V21.8161H104.019V22.7642H102.674V25.1828C102.674 25.4634 102.78 25.5698 103.061 25.5698H104.067V26.5566H102.916C101.919 26.5566 101.523 26.2084 101.523 25.2506V22.7642ZM104.681 20.4326C104.681 20.0359 105.058 19.7264 105.6 19.7264C106.152 19.7264 106.529 20.0359 106.529 20.4326C106.529 20.8293 106.152 21.1389 105.6 21.1389C105.058 21.1389 104.681 20.8293 104.681 20.4326ZM106.181 21.7193V26.5566H105.029V21.7193H106.181ZM107.176 24.138C107.176 22.6287 108.327 21.5839 109.981 21.5839C111.645 21.5839 112.797 22.6287 112.797 24.138C112.797 25.6472 111.645 26.6921 109.981 26.6921C108.327 26.6921 107.176 25.6472 107.176 24.138ZM108.356 24.138C108.356 25.1151 108.965 25.7053 109.981 25.7053C111.007 25.7053 111.616 25.1151 111.616 24.138C111.616 23.1608 111.007 22.5707 109.981 22.5707C108.965 22.5707 108.356 23.1608 108.356 24.138ZM114.931 26.5566H113.779V21.7193H114.843L114.911 22.4159H114.998C115.356 21.9225 115.975 21.5839 116.778 21.5839C118.191 21.5839 119.052 22.3675 119.052 23.8961V26.5566H117.891V24.0412C117.891 23.0641 117.523 22.5804 116.517 22.5804C115.559 22.5804 114.931 23.1705 114.931 24.138V26.5566ZM119.959 24.6411H121.12C121.246 25.415 121.739 25.773 122.658 25.773C123.5 25.773 123.839 25.5698 123.839 25.2022C123.839 24.9313 123.684 24.7668 123.2 24.6798L121.623 24.4089C120.665 24.2444 120.114 23.7994 120.104 23.0544C120.104 22.116 121.033 21.5839 122.416 21.5839C123.897 21.5839 124.835 22.3095 124.961 23.5285H123.8C123.703 22.8416 123.258 22.4933 122.416 22.4933C121.613 22.4933 121.284 22.6868 121.284 23.0351C121.284 23.2963 121.43 23.4317 121.884 23.5188L123.471 23.7994C124.467 23.9735 125.009 24.4379 125.009 25.1828C125.009 26.1697 124.1 26.6921 122.658 26.6921C121.091 26.6921 120.133 25.9665 119.959 24.6411Z" fill="#292C32"/>
<path d="M259.06 21.6099H256.854V19.6861C258.612 19.6032 259.342 19.1056 259.607 17.9446H261.78V29.0566H259.06V21.6099Z" fill="#292C32"/>
<rect y="60.8359" width="273.654" height="171.379" rx="11.0567" fill="#2F343B" fill-opacity="0.2"/>
<rect x="11.0586" y="77.4209" width="22.1134" height="22.1134" rx="5.52836" fill="#292C32"/>
<path fill-rule="evenodd" clip-rule="evenodd" d="M17.2238 82.9492C16.8715 82.9492 16.5859 83.2348 16.5859 83.5871V85.926C16.5859 87.3499 17.6626 88.5224 19.0462 88.6737C19.5065 89.6314 20.4021 90.3404 21.4764 90.5442V92.7302H19.988C19.6357 92.7302 19.3501 93.0158 19.3501 93.368C19.3501 93.7203 19.6357 94.0059 19.988 94.0059H24.2406C24.5929 94.0059 24.8785 93.7203 24.8785 93.368C24.8785 93.0158 24.5929 92.7302 24.2406 92.7302H22.7522V90.5442C23.8265 90.3404 24.7221 89.6314 25.1824 88.6737C26.566 88.5224 27.6426 87.3499 27.6426 85.926V83.5871C27.6426 83.2348 27.357 82.9492 27.0048 82.9492H17.2238ZM18.7122 84.225H17.8617V85.926C17.8617 86.5198 18.2094 87.0323 18.7122 87.2712V84.225ZM25.5164 84.225V87.2712C26.0192 87.0323 26.3669 86.5198 26.3669 85.926V84.225H25.5164Z" fill="#F8C15B"/>
<path d="M41.1973 86.6935H38.8754V85.5325H44.8461V86.6935H42.5345V92.4775H41.1973V86.6935ZM47.0504 92.4775H45.8169V85.5325H47.0504V88.041H47.1437C47.5273 87.5124 48.1803 87.1496 49.0199 87.1496C50.5437 87.1496 51.4662 87.9892 51.4662 89.627V92.4775H50.2223V89.7825C50.2223 88.7355 49.8284 88.2173 48.7504 88.2173C47.7138 88.2173 47.0504 88.8496 47.0504 89.8861V92.4775ZM52.4546 89.8861C52.4546 88.2483 53.6571 87.16 55.4296 87.1496C57.2954 87.1496 58.4978 88.3313 58.3734 90.1556H53.7193C53.8229 91.016 54.476 91.5757 55.44 91.5757C56.2692 91.5861 56.8393 91.2026 57.0777 90.6014H58.3734C58.0728 91.8245 56.9533 92.633 55.44 92.6227C53.6674 92.6227 52.4546 91.5135 52.4546 89.8861ZM53.7607 89.2953H57.0466C56.9222 88.6008 56.3107 88.1862 55.44 88.1862C54.5692 88.1862 53.8955 88.6008 53.7607 89.2953ZM64.4104 92.4775H59.4557V85.5325H60.8032V91.3166H64.4104V92.4775ZM64.9994 89.8861C64.9994 88.2483 66.2018 87.16 67.9743 87.1496C69.8402 87.1496 71.0426 88.3313 70.9182 90.1556H66.264C66.3677 91.016 67.0207 91.5757 67.9847 91.5757C68.814 91.5861 69.3841 91.2026 69.6225 90.6014H70.9182C70.6176 91.8245 69.4981 92.633 67.9847 92.6227C66.2122 92.6227 64.9994 91.5135 64.9994 89.8861ZM66.3055 89.2953H69.5914C69.467 88.6008 68.8554 88.1862 67.9847 88.1862C67.114 88.1862 66.4402 88.6008 66.3055 89.2953ZM72.9851 89.2435H71.762C71.8657 87.9166 72.84 87.1392 74.54 87.1392C76.3022 87.1392 77.2765 87.8959 77.2765 89.2953V92.4775H76.1363L76.0637 91.7312H75.9705C75.5351 92.2702 74.851 92.6227 73.9388 92.6227C72.7156 92.6227 71.8864 92.0422 71.8864 91.0574C71.8864 90.0312 72.8711 89.4197 74.426 89.4197C74.9961 89.4197 75.5558 89.4819 76.043 89.5752V89.2953C76.043 88.5179 75.6077 88.1551 74.54 88.1551C73.5449 88.1551 73.0577 88.5179 72.9851 89.2435ZM73.1406 90.9642C73.1406 91.4306 73.5864 91.6068 74.1876 91.6068C75.1205 91.6068 75.9083 91.1507 76.0741 90.4251C75.6077 90.3422 75.0894 90.28 74.4778 90.28C73.6589 90.28 73.1406 90.4977 73.1406 90.9642ZM78.2629 89.7617C78.2629 88.2276 79.4342 87.1496 80.9683 87.1496C81.8494 87.1496 82.5128 87.5124 82.9067 88.0307H83L83.0829 87.2947H84.2231V91.9904C84.2231 93.5659 83.1036 94.5092 81.2896 94.5092C79.7244 94.5092 78.5946 93.7214 78.3665 92.5086H79.6104C79.8073 93.1306 80.3878 93.4934 81.2896 93.4934C82.4402 93.4934 82.9792 93.0166 82.9792 92.0111V91.4928H82.8859C82.4921 92.0111 81.8494 92.3635 80.9683 92.3635C79.4342 92.3635 78.2629 91.2959 78.2629 89.7617ZM79.5275 89.7617C79.5275 90.6946 80.1805 91.327 81.2585 91.327C82.3677 91.327 83.0103 90.6117 83.0103 89.7617C83.0103 88.9117 82.3677 88.1965 81.2585 88.1965C80.1805 88.1965 79.5275 88.8288 79.5275 89.7617ZM89.7059 87.2947H90.9394V92.4775H89.7992L89.7266 91.7312H89.6333C89.2498 92.2599 88.5864 92.6227 87.7779 92.6227C86.3163 92.6227 85.3834 91.783 85.3834 90.1453V87.2947H86.6273V89.9898C86.6273 91.0367 87.0315 91.555 88.0577 91.555C89.0321 91.555 89.7059 90.9227 89.7059 89.8861V87.2947ZM91.9717 89.8861C91.9717 88.2483 93.1741 87.16 94.9467 87.1496C96.8125 87.1496 98.0149 88.3313 97.8905 90.1556H93.2363C93.34 91.016 93.993 91.5757 94.957 91.5757C95.7863 91.5861 96.3564 91.2026 96.5948 90.6014H97.8905C97.5899 91.8245 96.4704 92.633 94.957 92.6227C93.1845 92.6227 91.9717 91.5135 91.9717 89.8861ZM93.2778 89.2953H96.5637C96.4393 88.6008 95.8278 88.1862 94.957 88.1862C94.0863 88.1862 93.4126 88.6008 93.2778 89.2953Z" fill="white"/>
<g clip-path="url(#clip1_2364_13250)">
<path fill-rule="evenodd" clip-rule="evenodd" d="M251.54 82.9507C250.45 82.9507 249.566 83.8347 249.566 84.9251C249.566 86.0155 250.45 86.8995 251.54 86.8995C252.631 86.8995 253.514 86.0155 253.514 84.9251C253.514 83.8347 252.631 82.9507 251.54 82.9507ZM255.094 86.5046C256.184 86.5046 257.068 87.3886 257.068 88.479C257.068 89.5695 256.184 90.4535 255.094 90.4535C254.004 90.4535 253.12 89.5695 253.12 88.479C253.12 87.3886 254.004 86.5046 255.094 86.5046ZM249.566 92.033C249.566 90.9426 250.45 90.0586 251.54 90.0586C252.631 90.0586 253.514 90.9426 253.514 92.033C253.514 93.1234 252.631 94.0074 251.54 94.0074C250.45 94.0074 249.566 93.1234 249.566 92.033ZM247.986 86.5046C249.077 86.5046 249.961 87.3886 249.961 88.479C249.961 89.5695 249.077 90.4535 247.986 90.4535C246.896 90.4535 246.012 89.5695 246.012 88.479C246.012 87.3886 246.896 86.5046 247.986 86.5046Z" fill="white" fill-opacity="0.4"/>
</g>
<g opacity="0.7">
<path d="M11.0586 121.647C11.0586 118.594 13.5337 116.119 16.5869 116.119H257.07C260.124 116.119 262.599 118.594 262.599 121.647V154.818C262.599 157.871 260.124 160.346 257.07 160.346H16.5869C13.5337 160.346 11.0586 157.871 11.0586 154.818V121.647Z" fill="#2A2C31" fill-opacity="0.76"/>
<path d="M33.3295 134.197V141.233H32.2644V135.262H32.2232L30.5398 136.361V135.344L32.2954 134.197H33.3295Z" fill="white"/>
<g clip-path="url(#clip2_2364_13250)">
<path fill-rule="evenodd" clip-rule="evenodd" d="M40.2594 139.295C40.09 139.464 40.0394 139.719 40.131 139.94C40.2227 140.162 40.4387 140.306 40.6783 140.306H47.7861C48.0257 140.306 48.2417 140.162 48.3334 139.94C48.4251 139.719 48.3744 139.464 48.205 139.295L44.8605 135.95C44.5135 135.603 43.9509 135.603 43.604 135.95L40.2594 139.295Z" fill="#34C759"/>
</g>
<path d="M55.56 140.859H56.4307C56.4307 141.343 56.7983 141.633 57.3981 141.633C58.0367 141.633 58.4043 141.372 58.4043 140.937C58.4043 140.617 58.2495 140.424 57.7561 140.298L56.9241 140.104C56.0824 139.901 55.6857 139.485 55.6857 138.789C55.6857 137.918 56.421 137.367 57.4659 137.367C58.501 137.367 59.1783 137.947 59.1976 138.847H58.3269C58.3075 138.373 57.9883 138.073 57.4368 138.073C56.866 138.073 56.5468 138.324 56.5468 138.76C56.5468 139.079 56.779 139.292 57.2433 139.408L58.0754 139.611C58.8783 139.805 59.275 140.172 59.275 140.878C59.275 141.778 58.501 142.349 57.3788 142.349C56.2662 142.349 55.56 141.759 55.56 140.859ZM59.9739 139.872C59.9739 138.392 60.9124 137.367 62.2958 137.367C63.4858 137.367 64.3178 138.044 64.4823 139.098H63.5729C63.4181 138.499 62.9344 138.179 62.3249 138.179C61.4638 138.179 60.8737 138.837 60.8737 139.863C60.8737 140.878 61.4251 141.536 62.2862 141.536C62.9344 141.536 63.4181 141.198 63.5826 140.637H64.492C64.3082 141.662 63.4278 142.349 62.2862 142.349C60.893 142.349 59.9739 141.362 59.9739 139.872ZM66.3609 142.223H65.4515V135.112H66.3609V138.228C66.6608 137.715 67.2316 137.367 67.9669 137.367C69.1762 137.367 69.7567 138.131 69.7567 139.34V142.233H68.8473V139.543C68.8473 138.586 68.3926 138.199 67.7154 138.199C66.835 138.199 66.3609 138.837 66.3609 139.65V142.223ZM72.9125 142.349C71.5387 142.349 70.7067 141.323 70.7067 139.882C70.7067 138.431 71.5484 137.367 72.9512 137.367C73.6768 137.367 74.2863 137.686 74.6056 138.266V135.112H75.5053V142.233H74.6927L74.6153 141.372C74.3057 142.02 73.6671 142.349 72.9125 142.349ZM73.0963 141.527C74.0251 141.527 74.5959 140.84 74.5959 139.853C74.5959 138.885 74.0251 138.189 73.0963 138.189C72.1676 138.189 71.6258 138.885 71.6258 139.853C71.6258 140.83 72.1676 141.527 73.0963 141.527ZM77.7267 142.223H76.8173V135.112H77.7267V138.228C78.0266 137.715 78.5974 137.367 79.3327 137.367C80.542 137.367 81.1225 138.131 81.1225 139.34V142.233H80.2131V139.543C80.2131 138.586 79.7584 138.199 79.0812 138.199C78.2008 138.199 77.7267 138.837 77.7267 139.65V142.223ZM85.091 137.463V138.295H84.6846C83.8236 138.295 83.2915 138.818 83.2915 139.727V142.233H82.3821V137.512H83.2335L83.2915 138.228C83.485 137.734 83.9591 137.405 84.6073 137.405C84.7717 137.405 84.9072 137.425 85.091 137.463ZM86.389 136.38C86.06 136.38 85.7891 136.109 85.7891 135.78C85.7891 135.441 86.06 135.18 86.389 135.18C86.7179 135.18 86.9888 135.441 86.9888 135.78C86.9888 136.109 86.7179 136.38 86.389 136.38ZM85.9439 142.233V137.502H86.8533V142.233H85.9439Z" fill="white"/>
<path d="M229.745 142.223L225.024 142.233V141.507L227.278 139.563C228.41 138.586 228.729 138.112 228.729 137.367C228.729 136.486 228.226 135.964 227.385 135.964C226.524 135.964 225.962 136.593 225.943 137.589H224.995C225.024 136.09 225.972 135.112 227.394 135.112C228.797 135.112 229.697 135.964 229.697 137.309C229.697 138.305 229.203 139.011 227.965 140.085L226.514 141.343H229.745V142.223ZM232.336 136.09H230.866V135.238H233.246V142.233H232.336V136.09ZM240.919 139.737H239.148V142.233H238.2V135.238H240.919C242.293 135.238 243.173 136.138 243.173 137.483C243.173 138.789 242.283 139.737 240.919 139.737ZM240.754 136.09H239.148V138.885H240.716C241.654 138.885 242.177 138.334 242.177 137.473C242.177 136.593 241.644 136.09 240.754 136.09ZM245.773 142.233H244.863V138.266H243.935V137.502H244.863V136.022H245.773V137.502H246.702V138.266H245.773V142.233ZM247.476 140.859H248.347C248.347 141.343 248.715 141.633 249.314 141.633C249.953 141.633 250.321 141.372 250.321 140.937C250.321 140.617 250.166 140.424 249.672 140.298L248.84 140.104C247.999 139.901 247.602 139.485 247.602 138.789C247.602 137.918 248.337 137.367 249.382 137.367C250.417 137.367 251.095 137.947 251.114 138.847H250.243C250.224 138.373 249.905 138.073 249.353 138.073C248.782 138.073 248.463 138.324 248.463 138.76C248.463 139.079 248.695 139.292 249.16 139.408L249.992 139.611C250.795 139.805 251.191 140.172 251.191 140.878C251.191 141.778 250.417 142.349 249.295 142.349C248.182 142.349 247.476 141.759 247.476 140.859Z" fill="white"/>
<path d="M11.0586 176.931C11.0586 173.878 13.5337 171.403 16.5869 171.403H257.07C260.124 171.403 262.599 173.878 262.599 176.931V210.101C262.599 213.155 260.124 215.63 257.07 215.63H16.5869C13.5337 215.63 11.0586 213.155 11.0586 210.101V176.931Z" fill="#2A2C31" fill-opacity="0.76"/>
<path d="M25.4635 189.481V196.517H24.3984V190.546H24.3572L22.6738 191.645V190.628L24.4293 189.481H25.4635ZM29.8232 196.613C29.5094 196.608 29.2002 196.551 28.8956 196.441C28.5933 196.331 28.3184 196.148 28.0711 195.891C27.8237 195.635 27.6256 195.29 27.4767 194.857C27.3301 194.424 27.2568 193.884 27.2568 193.236C27.2568 192.622 27.3175 192.077 27.4389 191.6C27.5626 191.124 27.7401 190.722 27.9714 190.394C28.2028 190.065 28.4822 189.814 28.8097 189.642C29.1372 189.47 29.5049 189.384 29.9125 189.384C30.3317 189.384 30.7039 189.467 31.0291 189.632C31.3543 189.797 31.6177 190.024 31.8193 190.315C32.0231 190.606 32.1525 190.937 32.2075 191.308H31.1597C31.0887 191.015 30.9478 190.776 30.7371 190.59C30.5264 190.405 30.2515 190.312 29.9125 190.312C29.3972 190.312 28.9952 190.536 28.7066 190.985C28.4204 191.434 28.2761 192.058 28.2738 192.858H28.3253C28.4467 192.658 28.5956 192.489 28.7719 192.349C28.9506 192.207 29.1498 192.098 29.3697 192.023C29.5919 191.945 29.8255 191.906 30.0706 191.906C30.4783 191.906 30.847 192.006 31.1768 192.205C31.5089 192.402 31.7735 192.674 31.9705 193.023C32.1674 193.371 32.2659 193.769 32.2659 194.218C32.2659 194.667 32.164 195.074 31.9602 195.438C31.7586 195.802 31.4746 196.091 31.1081 196.304C30.7417 196.514 30.3134 196.617 29.8232 196.613ZM29.8198 195.72C30.09 195.72 30.3317 195.653 30.5447 195.52C30.7577 195.387 30.926 195.209 31.0497 194.984C31.1734 194.76 31.2352 194.509 31.2352 194.232C31.2352 193.962 31.1745 193.715 31.0532 193.493C30.9341 193.271 30.7691 193.095 30.5584 192.964C30.35 192.834 30.1118 192.768 29.8438 192.768C29.64 192.768 29.451 192.807 29.277 192.885C29.1052 192.963 28.954 193.071 28.8235 193.208C28.6929 193.346 28.5898 193.504 28.5143 193.682C28.441 193.859 28.4043 194.045 28.4043 194.242C28.4043 194.506 28.465 194.75 28.5864 194.974C28.7101 195.198 28.8784 195.379 29.0914 195.517C29.3067 195.652 29.5495 195.72 29.8198 195.72Z" fill="white"/>
<circle cx="43.1956" cy="193.516" r="3.1097" fill="#B1B5B9"/>
<path d="M55.2078 197.517H54.2984V193.55H53.3696V192.786H54.2984V191.305H55.2078V192.786H56.1366V193.55H55.2078V197.517ZM58.2795 197.633C57.2637 197.633 56.6638 197.062 56.6638 196.201C56.6638 195.33 57.312 194.788 58.4246 194.701L59.9145 194.585V194.45C59.9145 193.656 59.4405 193.376 58.8019 193.376C58.0376 193.376 57.6023 193.714 57.6023 194.285H56.809C56.809 193.298 57.6216 192.65 58.8406 192.65C60.0113 192.65 60.8046 193.269 60.8046 194.546V197.517H60.0306L59.9339 196.752C59.692 197.294 59.0438 197.633 58.2795 197.633ZM58.5407 196.926C59.4018 196.926 59.9242 196.365 59.9242 195.475V195.224L58.7149 195.32C57.9119 195.398 57.5829 195.707 57.5829 196.172C57.5829 196.675 57.9506 196.926 58.5407 196.926ZM62.9928 197.517H62.0834V190.396H62.9928V197.517ZM65.715 197.633C64.6991 197.633 64.0993 197.062 64.0993 196.201C64.0993 195.33 64.7475 194.788 65.8601 194.701L67.35 194.585V194.45C67.35 193.656 66.8759 193.376 66.2374 193.376C65.4731 193.376 65.0378 193.714 65.0378 194.285H64.2444C64.2444 193.298 65.0571 192.65 66.2761 192.65C67.4467 192.65 68.2401 193.269 68.2401 194.546V197.517H67.4661L67.3693 196.752C67.1275 197.294 66.4793 197.633 65.715 197.633ZM65.9762 196.926C66.8372 196.926 67.3597 196.365 67.3597 195.475V195.224L66.1503 195.32C65.3473 195.398 65.0184 195.707 65.0184 196.172C65.0184 196.675 65.386 196.926 65.9762 196.926ZM70.4283 197.517H69.5189V190.396H70.4283V197.517ZM71.4574 195.156C71.4574 193.676 72.3958 192.65 73.7793 192.65C74.9693 192.65 75.8013 193.327 75.9658 194.382H75.0564C74.9016 193.782 74.4178 193.463 73.8083 193.463C72.9473 193.463 72.3571 194.121 72.3571 195.146C72.3571 196.162 72.9086 196.82 73.7696 196.82C74.4178 196.82 74.9016 196.481 75.066 195.92H75.9755C75.7916 196.946 74.9112 197.633 73.7696 197.633C72.3765 197.633 71.4574 196.646 71.4574 195.156Z" fill="white"/>
<path d="M231.025 193.898H230.328V193.269L232.312 191.364H229.167V190.522H233.511V191.286L231.596 193.115C232.786 193.26 233.686 194.063 233.686 195.32C233.686 196.733 232.621 197.633 231.199 197.633C229.825 197.633 228.839 196.791 228.839 195.34H229.777C229.777 196.249 230.338 196.781 231.218 196.781C232.128 196.781 232.718 196.201 232.718 195.301C232.718 194.459 232.138 193.898 231.025 193.898ZM240.915 195.021H239.144V197.517H238.196V190.522H240.915C242.288 190.522 243.169 191.422 243.169 192.766C243.169 194.072 242.279 195.021 240.915 195.021ZM240.75 191.373H239.144V194.169H240.711C241.65 194.169 242.172 193.618 242.172 192.757C242.172 191.876 241.64 191.373 240.75 191.373ZM245.769 197.517H244.859V193.55H243.93V192.786H244.859V191.305H245.769V192.786H246.697V193.55H245.769V197.517ZM247.472 196.143H248.343C248.343 196.627 248.71 196.917 249.31 196.917C249.949 196.917 250.316 196.656 250.316 196.22C250.316 195.901 250.162 195.707 249.668 195.582L248.836 195.388C247.994 195.185 247.598 194.769 247.598 194.072C247.598 193.202 248.333 192.65 249.378 192.65C250.413 192.65 251.09 193.231 251.11 194.13H250.239C250.22 193.656 249.9 193.357 249.349 193.357C248.778 193.357 248.459 193.608 248.459 194.043C248.459 194.363 248.691 194.576 249.155 194.692L249.987 194.895C250.79 195.088 251.187 195.456 251.187 196.162C251.187 197.062 250.413 197.633 249.291 197.633C248.178 197.633 247.472 197.043 247.472 196.143Z" fill="white"/>
</g>
<defs>
<clipPath id="clip0_2364_13250">
<rect width="16.5851" height="16.5851" fill="white" transform="translate(11.6602 14.2642)"/>
</clipPath>
<clipPath id="clip1_2364_13250">
<rect width="11.0567" height="11.0567" fill="white" transform="translate(246.012 82.9492)"/>
</clipPath>
<clipPath id="clip2_2364_13250">
<rect width="8.29253" height="8.29253" fill="white" transform="translate(40.0859 134.086)"/>
</clipPath>
</defs>
</svg>
